<svg xmlns="http://www.w3.org/2000/svg" width="162" height="108">
  <g fill="none">
    <path fill="#E6E6E6" d="M30 93.7a23.5 23.5 0 0 1-1.7-.1.5.5 0 0 1 .2-1.1l1.6.2a.5.5 0 0 1 0 1H30Zm5.4-.2a.5.5 0 0 1-.1-1 19.5 19.5 0 0 0 1.5-.3.5.5 0 0 1 .7.4.5.5 0 0 1-.4.6l-1.6.3h-.1Zm-12.2-1.3a.5.5 0 0 1-.2 0 24.3 24.3 0 0 1-1.5-.6.5.5 0 0 1 .4-1l1.5.6a.5.5 0 0 1-.2 1Zm18.8-.8a.5.5 0 0 1-.3-1l1.4-.8a.5.5 0 1 1 .6 1l-1.5.7a.5.5 0 0 1-.2.1Zm-25-2.3a.5.5 0 0 1-.3 0l-1.4-1a.5.5 0 1 1 .7-.9l1.3 1a.5.5 0 0 1-.3 1Zm30.8-1.5a.5.5 0 0 1-.4-.2.5.5 0 0 1 0-.8l.1-.1 1.1-1a.5.5 0 1 1 .7.8l-1 1-.2.1a.5.5 0 0 1-.3.2Zm-36.4-2.7a.5.5 0 0 1-.3-.2l-1.2-1a.5.5 0 0 1 .8-.9l1.1 1.1a.5.5 0 0 1 0 .8.5.5 0 0 1-.4.2Zm41.3-2.2a.5.5 0 0 1-.3-1l1-1.1a.5.5 0 1 1 .8.7l-1 1.2a.5.5 0 0 1-.5.1Zm-46-3a.5.5 0 0 1-.4-.2 41.8 41.8 0 0 1-1-1.3.5.5 0 0 1 .1-.7.5.5 0 0 1 .8 0l1 1.4a.5.5 0 0 1-.5.8Zm50.6-2.4a.5.5 0 0 1-.4-.8l1-1.3a.5.5 0 1 1 .8.7l-1 1.2a.5.5 0 0 1-.4.2ZM2.9 74a.5.5 0 0 1-.5-.3L1.7 72a.5.5 0 0 1 .7-.7l.3.3.7 1.4a.5.5 0 0 1-.5.8Zm58.8-2a.5.5 0 0 1-.5-1l1-1.2a.5.5 0 1 1 .9.7l-1 1.2a.5.5 0 0 1-.4.2Zm-61-4.6a.5.5 0 0 1-.6-.5 17 17 0 0 1-.1-1.6.5.5 0 1 1 1 0l.2 1.5a.5.5 0 0 1-.5.6Zm65.2-1a.5.5 0 0 1-.4-.9l1-1.2a.5.5 0 0 1 .8.6l-1 1.3a.5.5 0 0 1-.4.2Zm88.5-3a.7.7 0 0 1-.1 0 .5.5 0 0 1-.4-.6l.4-1.6a.5.5 0 0 1 .7-.3.5.5 0 0 1 .4.6l-.5 1.6a.5.5 0 0 1-.5.4Zm-84.2-2.5a.5.5 0 0 1-.5-1l1-1.2a.5.5 0 1 1 .9.7l-1 1.3a.5.5 0 0 1-.4.1Zm-69-.4a.5.5 0 0 1-.1 0 .5.5 0 0 1-.4-.7 21.5 21.5 0 0 1 .6-1.6.5.5 0 1 1 1 .4L1.7 60a.5.5 0 0 1-.4.4Zm154.8-4a.5.5 0 0 1-.5-.6l.3-1.6a.5.5 0 1 1 1 .2l-.2 1.6a.5.5 0 0 1-.6.4Zm-81.5-1.3a.5.5 0 0 1-.5-.9l1-1.2a.5.5 0 1 1 .9.6l-1 1.3a.5.5 0 0 1-.4.2Zm-70-1a.5.5 0 0 1-.5-.9L5 52a.5.5 0 1 1 .8.7 23 23 0 0 0-1 1.2.5.5 0 0 1-.4.3Zm74.3-4.5a.5.5 0 0 1-.4-.8l1-1.3a.5.5 0 1 1 .9.7l-1 1.2a.5.5 0 0 1-.5.2Zm78.2-.1a.5.5 0 0 1-.6-.6l.1-1.6a.5.5 0 0 1 .6-.5c.3 0 .5.2.5.5a54.3 54.3 0 0 1-.1 1.6.5.5 0 0 1-.5.6ZM9.3 49a.5.5 0 0 1-.4-1l1.4-1a.5.5 0 0 1 .6 1s-.5.3-1.3 1a.5.5 0 0 1-.3 0Zm74-4.7a.5.5 0 0 1-.3-.9l1-1.2a.5.5 0 1 1 .8.7l-1 1.2a.5.5 0 0 1-.5.2Zm73.8-1.8a.5.5 0 0 1-.5-.5 54.3 54.3 0 0 0-.2-1.6.5.5 0 1 1 1.1-.1l.1 1.6c0 .3-.2.5-.5.5Zm-69-3.4a.5.5 0 0 1-.5-1l1.1-1.1a.5.5 0 0 1 .8.7l-1 1.2a.5.5 0 0 1-.5.2Zm68-3.5a.5.5 0 0 1-.5-.4 22.7 22.7 0 0 0-.4-1.6.5.5 0 0 1 1-.3l.4 1.6a.5.5 0 0 1-.4.7ZM93 34.2a.5.5 0 0 1-.4-1l1.2-1a.5.5 0 1 1 .8.7l-1.2 1a.5.5 0 0 1-.4.3Zm5.1-4.8a.5.5 0 0 1-.3-1l1.2-1a.5.5 0 1 1 .7.8l-1.2 1a.5.5 0 0 1-.4.2Zm55.2-.6-.7-1.3a.5.5 0 1 1 .9-.6l.8 1.4a.5.5 0 0 1-.5.8.5.5 0 0 1-.5-.3Zm-49.7-3.7a.5.5 0 0 1-.3-1l1.3-1a.5.5 0 0 1 .8.4.5.5 0 0 1-.2.5l-1.3 1a.5.5 0 0 1-.3 0Zm46.1-1.6a.5.5 0 0 1-.3-.2l-1.2-1a.5.5 0 1 1 .7-.8l1.2 1a.5.5 0 0 1 0 .8.5.5 0 0 1-.4.2Zm-40.2-2.3a.5.5 0 0 1-.3-1l1.4-.8a.5.5 0 0 1 .8.5.5.5 0 0 1-.3.5l-1.4.7a.5.5 0 0 1-.3.1Zm34.7-1.9a.5.5 0 0 1-.3 0l-1.4-.8a.5.5 0 0 1 .5-1l1.4.8a.5.5 0 0 1-.2 1Zm-28.5-1.2a.5.5 0 0 1-.2-1l1.5-.6a.5.5 0 0 1 .4 1l-1.5.6a.5.5 0 0 1-.2 0Zm22-1.4a.8.8 0 0 1-.1 0l-1.5-.4a.6.6 0 0 1 .2-1.1l1.6.4a.5.5 0 0 1-.1 1Zm-15.4-.6a.5.5 0 0 1-.1-1l1.6-.4a.5.5 0 0 1 .6.8.5.5 0 0 1-.5.3l-1.5.3a.4.4 0 0 1-.1 0Zm8.5-.6a32.4 32.4 0 0 0-1.6 0 .5.5 0 0 1 0-1.2l1.7.1a.5.5 0 0 1 0 1Z"/>
    <path fill="#39475F" d="M119.8 100.2H58.1L70.3.8h55l5.8 7.6z"/>
    <path fill="#61728D" d="M113.2 100.2H51.5L63.7.8h61.7z"/>
    <path fill="#181F27" d="M110.1 81.4H58.6l8.8-71.7h51.5z"/>
    <path fill="#1E252E" d="m92.7 50 15 .2-.4 2.3-14.6-.2z"/>
    <path fill="#39475F" d="m51.5 100.2 7.4 6.9 60 .9 1-7.8z"/>
    <path fill="#2D394B" d="M99.1 29s2.6.2 3.9 5c1.3 5 .8 18.5.8 18.5l-11-.2S87.2 32.2 99 29Z"/>
    <path fill="#FC7614" d="M5.4 32.8 45.8 0 67 26.1 26.6 59z"/>
    <path fill="#FFF" d="m27.5 22 18-14.8 3.6 4.3L31 26.2z"/>
    <path fill="#FFF" d="m25.3 45.2 5.3-4.4a2.8 2.8 0 0 1 4 .4 2.8 2.8 0 0 1-.5 4l-5.3 4.3a2.8 2.8 0 0 1-4-.4 2.8 2.8 0 0 1 .5-4Zm12-9.8 17-13.8a2.8 2.8 0 0 1 3.8.4 2.8 2.8 0 0 1-.4 4L40.8 39.6a2.8 2.8 0 0 1-3.9-.4 2.8 2.8 0 0 1 .4-4Z" opacity=".5"/>
    <circle cx="17.9" cy="33.6" r="3.7" fill="#FFF" opacity=".3"/>
    <circle cx="21.7" cy="30.3" r="3.7" fill="#FFF" opacity=".3"/>
    <path fill="#BAD6FA" d="M99.1 29s-5.8 2.2-3.8 18.6c1.5 12.1-3.6 28-11 28.3-7.5.2-21.2-.5-21.2-.5s7.1-18.5 5.7-34.1a14.8 14.8 0 0 1 .7-6.5c.9-2.3 2.5-4.8 5.5-5.2 6-.8 24.1-.5 24.1-.5Z"/>
    <path fill="#546F8D" d="m59 76.6 26.3-.5s-4-4-4.3-14.2l-36.2.6a31.5 31.5 0 0 0 2.8 7.5A12.5 12.5 0 0 0 59 76.6Z"/>
    <path fill="#2D394B" d="m78.2 14.8-1 6H104l.8-6z"/>
    <path fill="#FFF" d="M85.5 86.2a6.3 6.3 0 0 0-9.4 1.2 5 5 0 0 0-.8 2.7c0 4 2.7 6.5 8.2 5.5 4.2-.9 5.8-6.1 2-9.4Z" opacity=".5"/>
    <circle cx="147.2" cy="81.5" r="14.8" fill="#FC7614"/>
    <path fill="#FFF" d="M73.7 35.8a.5.5 0 0 1 0-1.1c.1 0 11.3-.9 17.4-.3a.5.5 0 0 1-.1 1c-6-.5-17.1.3-17.2.3Zm-.9 7.2a.5.5 0 0 1 0-1c.1 0 11.3-.9 17.4-.3a.5.5 0 0 1-.1 1c-6-.5-17.1.3-17.2.3Zm0 7.6a.5.5 0 0 1-.1-1c.1 0 11.3-1 17.4-.4a.5.5 0 0 1-.1 1.1c-6-.5-17.1.3-17.2.3Zm-.8 7.6a.5.5 0 0 1 0-1.1c.1 0 11.3-.8 17.3-.3a.5.5 0 0 1 0 1c-6-.5-17.1.4-17.2.4Z"/>
  </g>
</svg>
